{
  "source": "C:\\Users\\Peter\\Desktop\\stuff\\MIUN\\quantitative_research\\video_compression\\videos\\BVI-HD\\BVI-HD_CDVL_videos\\ORIG\\KineticFastPainting_1920x1080_60fps.mp4",
  "output": "C:\\Users\\Peter\\Desktop\\stuff\\MIUN\\quantitative_research\\video_compression\\compressed_videos\\BVI-HD\\h264\\2\\KineticFastPainting_1920x1080_60fps_h264.mp4",
  "codec": "h264",
  "ok": "Input #0, mov,mp4,m4a,3gp,3g2,mj2, from 'C:\\Users\\Peter\\Desktop\\stuff\\MIUN\\quantitative_research\\video_compression\\videos\\BVI-HD\\BVI-HD_CDVL_videos\\ORIG\\KineticFastPainting_1920x1080_60fps.mp4':\n  Metadata:\n    major_brand     : isom\n    minor_version   : 512\n    compatible_brands: isomiso2avc1mp41\n    encoder         : Lavf54.28.101\n  Duration: 00:00:05.00, start: 0.000000, bitrate: 477980 kb/s\n  Stream #0:0[0x1](und): Video: h264 (High 4:4:4 Predictive) (avc1 / 0x31637661), yuv420p(progressive), 1920x1080, 477974 kb/s, 60 fps, 60 tbr, 60 tbn (default)\n    Metadata:\n      handler_name    : VideoHandler\n      vendor_id       : [0][0][0][0]\n[out#0/mp4 @ 0000017d5aed9cc0] Codec AVOption b:a (set bitrate (in bits/s)) has not been used for any stream. The most likely reason is either wrong type (e.g. a video option with no video streams) or that it is a private option of some decoder which was not actually used for any stream.\nStream mapping:\n  Stream #0:0 -> #0:0 (h264 (native) -> h264 (libx264))\nPress [q] to stop, [?] for help\n[libx264 @ 0000017d5aeebc80] using cpu capabilities: MMX2 SSE2Fast SSSE3 SSE4.2 AVX FMA3 BMI2 AVX2\n[libx264 @ 0000017d5aeebc80] profile High, level 5.0, 4:2:0, 8-bit\n[libx264 @ 0000017d5aeebc80] 264 - core 165 r3222 b35605a - H.264/MPEG-4 AVC codec - Copyleft 2003-2025 - http://www.videolan.org/x264.html - options: cabac=1 ref=5 deblock=1:0:0 analyse=0x3:0x113 me=hex subme=8 psy=1 psy_rd=1.00:0.00 mixed_ref=1 me_range=16 chroma_me=1 trellis=2 8x8dct=1 cqm=0 deadzone=21,11 fast_pskip=1 chroma_qp_offset=-2 threads=18 lookahead_threads=3 sliced_threads=0 nr=0 decimate=1 interlaced=0 bluray_compat=0 constrained_intra=0 bframes=3 b_pyramid=2 b_adapt=1 b_bias=0 direct=3 weightb=1 open_gop=0 weightp=2 keyint=250 keyint_min=25 scenecut=40 intra_refresh=0 rc_lookahead=50 rc=cbr mbtree=1 bitrate=2000 ratetol=1.0 qcomp=0.60 qpmin=0 qpmax=69 qpstep=4 vbv_maxrate=2000 vbv_bufsize=2000 nal_hrd=none filler=0 ip_ratio=1.40 aq=1:1.00\nOutput #0, mp4, to 'C:\\Users\\Peter\\Desktop\\stuff\\MIUN\\quantitative_research\\video_compression\\compressed_videos\\BVI-HD\\h264\\2\\KineticFastPainting_1920x1080_60fps_h264.mp4':\n  Metadata:\n    major_brand     : isom\n    minor_version   : 512\n    compatible_brands: isomiso2avc1mp41\n    encoder         : Lavf62.3.100\n  Stream #0:0(und): Video: h264 (avc1 / 0x31637661), yuv420p(tv, progressive), 1920x1080, q=2-31, 2000 kb/s, 60 fps, 15360 tbn (default)\n    Metadata:\n      encoder         : Lavc62.11.100 libx264\n      handler_name    : VideoHandler\n      vendor_id       : [0][0][0][0]\n    Side data:\n      cpb: bitrate max/min/avg: 2000000/0/2000000 buffer size: 2000000 vbv_delay: N/A\nframe=    0 fps=0.0 q=0.0 size=       0KiB time=N/A bitrate=N/A speed=N/A elapsed=0:00:01.14    \nframe=    0 fps=0.0 q=0.0 size=       0KiB time=N/A bitrate=N/A speed=N/A elapsed=0:00:01.74    \nframe=    0 fps=0.0 q=0.0 size=       0KiB time=N/A bitrate=N/A speed=N/A elapsed=0:00:02.34    \nframe=    5 fps=1.7 q=56.0 size=       0KiB time=00:00:00.03 bitrate=  11.5kbits/s speed=0.0115x elapsed=0:00:02.90    \nframe=   20 fps=5.8 q=53.0 size=       0KiB time=00:00:00.26 bitrate=   1.4kbits/s speed=0.0772x elapsed=0:00:03.45    \nframe=   35 fps=8.6 q=54.0 size=       0KiB time=00:00:00.53 bitrate=   0.7kbits/s speed=0.131x elapsed=0:00:04.06    \nframe=   54 fps= 12 q=54.0 size=     256KiB time=00:00:00.80 bitrate=2621.9kbits/s speed=0.171x elapsed=0:00:04.68    \nframe=   76 fps= 14 q=54.0 size=     256KiB time=00:00:01.08 bitrate=1936.2kbits/s speed=0.205x elapsed=0:00:05.28    \nframe=   90 fps= 15 q=56.0 size=     256KiB time=00:00:01.41 bitrate=1480.6kbits/s speed=0.238x elapsed=0:00:05.95    \nframe=  104 fps= 16 q=55.0 size=     256KiB time=00:00:01.68 bitrate=1246.1kbits/s speed=0.255x elapsed=0:00:06.61    \nframe=  120 fps= 17 q=55.0 size=     512KiB time=00:00:01.93 bitrate=2169.7kbits/s speed=0.268x elapsed=0:00:07.21    \nframe=  138 fps= 18 q=55.0 size=     512KiB time=00:00:02.25 bitrate=1864.3kbits/s speed=0.286x elapsed=0:00:07.87    \nframe=  155 fps= 18 q=55.0 size=     512KiB time=00:00:02.55 bitrate=1645.0kbits/s speed=0.301x elapsed=0:00:08.46    \nframe=  175 fps= 19 q=55.0 size=     768KiB time=00:00:02.78 bitrate=2260.5kbits/s speed=0.306x elapsed=0:00:09.10    \nframe=  190 fps= 20 q=55.0 size=     768KiB time=00:00:03.08 bitrate=2040.6kbits/s speed=0.317x elapsed=0:00:09.71    \nframe=  211 fps= 20 q=55.0 size=     768KiB time=00:00:03.43 bitrate=1832.6kbits/s speed=0.332x elapsed=0:00:10.35    \nframe=  232 fps= 21 q=55.0 size=     768KiB time=00:00:03.80 bitrate=1655.7kbits/s speed=0.347x elapsed=0:00:10.94    \nframe=  265 fps= 23 q=55.0 size=    1024KiB time=00:00:04.30 bitrate=1950.9kbits/s speed=0.373x elapsed=0:00:11.51    \nframe=  300 fps= 25 q=-1.0 size=    1280KiB time=00:00:04.93 bitrate=2125.6kbits/s speed=0.407x elapsed=0:00:12.13    \n[mp4 @ 0000017d5aeea600] Starting second pass: moving the moov atom to the beginning of the file\n[out#0/mp4 @ 0000017d5aed9cc0] video:1299KiB audio:0KiB subtitle:0KiB other streams:0KiB global headers:0KiB muxing overhead: 0.257945%\nframe=  300 fps= 25 q=-1.0 Lsize=    1302KiB time=00:00:04.96 bitrate=2148.0kbits/s speed=0.409x elapsed=0:00:12.14    \n[libx264 @ 0000017d5aeebc80] frame I:2     Avg QP:46.91  size: 17866\n[libx264 @ 0000017d5aeebc80] frame P:210   Avg QP:50.85  size:  4969\n[libx264 @ 0000017d5aeebc80] frame B:88    Avg QP:50.87  size:  2844\n[libx264 @ 0000017d5aeebc80] consecutive B-frames: 50.7% 30.0%  2.0% 17.3%\n[libx264 @ 0000017d5aeebc80] mb I  I16..4: 49.6% 50.2%  0.2%\n[libx264 @ 0000017d5aeebc80] mb P  I16..4: 19.4%  4.3%  0.0%  P16..4: 17.5%  0.3%  0.5%  0.0%  0.0%    skip:57.9%\n[libx264 @ 0000017d5aeebc80] mb B  I16..4:  0.4%  0.1%  0.0%  B16..8: 19.2%  0.2%  0.0%  direct: 6.0%  skip:74.0%  L0:49.1% L1:50.7% BI: 0.3%\n[libx264 @ 0000017d5aeebc80] 8x8 transform intra:19.6% inter:99.2%\n[libx264 @ 0000017d5aeebc80] direct mvs  spatial:89.8% temporal:10.2%\n[libx264 @ 0000017d5aeebc80] coded y,uvDC,uvAC intra: 0.9% 37.2% 0.3% inter: 0.2% 10.9% 0.0%\n[libx264 @ 0000017d5aeebc80] i16 v,h,dc,p: 57% 27%  6% 10%\n[libx264 @ 0000017d5aeebc80] i8 v,h,dc,ddl,ddr,vr,hd,vl,hu:  3%  1% 83%  2%  3%  3%  2%  2%  1%\n[libx264 @ 0000017d5aeebc80] i4 v,h,dc,ddl,ddr,vr,hd,vl,hu: 16%  9%  9% 12% 21% 12%  9%  8%  5%\n[libx264 @ 0000017d5aeebc80] i8c dc,h,v,p: 93%  4%  3%  1%\n[libx264 @ 0000017d5aeebc80] Weighted P-Frames: Y:32.9% UV:14.8%\n[libx264 @ 0000017d5aeebc80] ref P L0: 46.9%  0.4% 16.5% 11.6% 12.3% 10.0%  2.2%\n[libx264 @ 0000017d5aeebc80] ref B L0: 55.2% 19.5% 21.6%  3.7%\n[libx264 @ 0000017d5aeebc80] ref B L1: 93.5%  6.5%\n[libx264 @ 0000017d5aeebc80] kb/s:2126.98\n",
  "seconds": 12.634597063064575,
  "probe_out": {}
}